<?xml version="1.0" encoding="UTF-8"?> <!-- Generator: Adobe Illustrator 22.0.1, SVG Export Plug-In . SVG Version: 6.00 Build 0) --> <svg xmlns="http://www.w3.org/2000/svg" xmlns:xlink="http://www.w3.org/1999/xlink" version="1.1" id="Capa_1" x="0px" y="0px" viewBox="0 0 341.4 406.8" style="enable-background:new 0 0 341.4 406.8;" xml:space="preserve"> <style type="text/css"> .st0{fill:#6D107D;} .st1{opacity:0.1;enable-background:new ;} .st2{opacity:0.3;enable-background:new ;} .st3{fill:#263238;} .st4{fill:#E0E0E0;} .st5{fill:#BA7F72;} .st6{fill:#FFFFFF;} .st7{fill:#455A64;} .st8{fill:#8B5D54;} .st9{opacity:0.3;} </style> <path class="st0" d="M24,144.3h57.7c0,0,0-48.5,50.4-49.4c26.2-0.5,39.7,16.7,45.3,29.8c6.4,15.3,4.5,32.6-4.1,46.8 c-9.8,16.1-30.9,32.4-69.8,25.5l-0.4,128.8h57.1v-76.3c0,0,80.1-20.7,80.1-109c0-84.4-68.3-102.7-105-103.9 c-20.4-0.7-27.8-1.5-53.1,2.1C50,43.3,23.3,80.6,24,144.3z"></path> <rect x="102.9" y="352.6" class="st0" width="58" height="54.1"></rect> <rect x="102.9" y="352.3" class="st1" width="58" height="54.1"></rect> <path class="st1" d="M23.7,144.3h57.8c0,0,0-48.5,50.4-49.4c26.2-0.5,39.7,16.7,45.3,29.8c6.4,15.3,4.5,32.6-4.1,46.8 c-9.8,16.1-30.9,32.4-69.8,25.5l-0.5,128.8h57.1v-76.3c0,0,80.1-20.7,80.1-109c0-84.4-68.3-102.7-105-103.9 c-20.4-0.7-27.8-1.5-53.1,2.1C49.8,43.3,23.1,80.6,23.7,144.3z"></path> <path class="st0" d="M0,144.3h57.8c0,0,0-48.5,50.4-49.4c26.2-0.5,39.7,16.7,45.2,29.8c6.4,15.3,4.5,32.6-4.1,46.8 c-9.8,16.1-31.3,30.8-70.2,24v130.3h57.1v-76.3c0,0,80.1-20.7,80.1-109c0-84.4-75.7-104.1-108.1-104.1C83.4,36.4-1.1,42.4,0,144.3z"></path> <path class="st2" d="M0,144.3h57.8c0,0,0-48.5,50.4-49.4c26.2-0.5,39.7,16.7,45.2,29.8c6.4,15.3,4.5,32.6-4.1,46.8 c-9.8,16.1-31.3,30.8-70.2,24v130.3h57.1v-76.3c0,0,80.1-20.7,80.1-109c0-84.4-75.7-104.1-108.1-104.1C83.4,36.4-1.1,42.4,0,144.3z"></path> <rect x="79" y="352.6" class="st0" width="58" height="54.1"></rect> <rect x="79" y="352.6" class="st2" width="58" height="54.1"></rect> <path class="st3" d="M114.7,95.2c-0.3,0-0.6,0-0.9,0c-0.6,0-1.4-0.2-2.5-0.2c-3-0.1-6.1,0-9.1,0.4c-4.5,0.6-8.8,1.6-13.1,3.1 c-2.5,0.9-4.9,1.9-7.3,3.1c-2.5,1.3-4.9,2.8-7.1,4.6c-2.2,1.8-4.1,3.9-5.8,6.2c-1.6,2.1-3.1,4.3-4.4,6.6c-2.2,3.9-3.9,8.1-5.2,12.4 c-0.8,2.9-1.4,5.9-1.7,8.9c-0.1,1.1-0.1,1.9-0.2,2.5c0,0.3,0,0.6-0.1,0.9c0-0.3,0-0.6,0-0.9c0-0.6,0-1.4,0.1-2.5 c0.2-3,0.8-6.1,1.6-9c1.2-4.4,2.9-8.6,5.1-12.5c1.3-2.3,2.8-4.6,4.4-6.7c1.7-2.3,3.7-4.4,5.9-6.3c2.2-1.8,4.6-3.4,7.2-4.7 c2.4-1.2,4.8-2.3,7.3-3.2c4.3-1.5,8.7-2.5,13.2-3c3-0.4,6.1-0.4,9.1-0.2c0.8,0.1,1.6,0.2,2.5,0.3C114.1,95.1,114.4,95.1,114.7,95.2z "></path> <path class="st3" d="M201.7,84.9c0,0-0.1-0.1-0.2-0.2s-0.3-0.4-0.5-0.7l-1.9-2.7c-0.4-0.6-0.9-1.3-1.4-1.9l-1.8-2.2l-2.1-2.5 c-0.8-0.9-1.6-1.7-2.5-2.7s-1.8-1.9-2.8-2.9c-1-1-2.1-1.9-3.2-2.9c-0.6-0.5-1.1-1-1.7-1.5l-1.9-1.5c-1.3-1-2.5-2-3.9-3 c-6-4.3-12.3-8-18.9-11.2l-5.3-2.4l-5.2-2c-1.7-0.7-3.5-1.2-5.1-1.8s-3.3-1.1-5-1.5l-4.8-1.3c-1.6-0.4-3.1-0.7-4.6-1 c-1.5-0.3-2.9-0.6-4.3-0.8l-4-0.6c-2.5-0.4-4.9-0.5-6.9-0.7c-1-0.1-2-0.2-2.8-0.2l-2.4-0.1l-3.3-0.1h-0.9H104c0.1,0,0.2,0,0.3,0h0.9 h3.3h2.4c0.9,0,1.8,0.1,2.8,0.2c2,0.2,4.4,0.2,6.9,0.7l4,0.5c1.4,0.2,2.8,0.5,4.3,0.8c1.5,0.3,3,0.6,4.6,1l4.8,1.2 c1.7,0.4,3.3,1,5,1.5s3.4,1,5.1,1.8l5.3,2l5.3,2.4c6.7,3.2,13,6.9,19,11.3c1.4,1,2.6,2.1,3.9,3.1l1.9,1.3c0.6,0.5,1.1,1,1.7,1.5 l3.2,3c1,1,1.9,2,2.8,2.9s1.7,1.8,2.5,2.7l2,2.6l1.8,2.2c0.5,0.7,0.9,1.4,1.3,2c0.8,1.2,1.4,2.1,1.8,2.8l0.5,0.7 C201.6,84.8,201.7,84.9,201.7,84.9z"></path> <path class="st3" d="M195.7,208.9c-0.1,0.2-0.3,0.4-0.4,0.6l-1.4,1.6c-0.6,0.7-1.3,1.6-2.2,2.6s-1.8,2.1-3,3.3s-2.4,2.5-3.8,3.8 s-2.9,2.7-4.6,4.2c-7.1,6.2-15,11.6-23.4,16.1c-1.9,1-3.8,2-5.5,2.8s-3.4,1.6-4.9,2.2s-2.9,1.2-4.1,1.6s-2.3,0.9-3.2,1.1l-2,0.6 c-0.2,0.1-0.5,0.2-0.7,0.2c0.2-0.1,0.4-0.2,0.7-0.3l2-0.7c0.9-0.3,1.9-0.7,3.1-1.2s2.6-1,4.1-1.7s3.2-1.4,4.9-2.3s3.6-1.8,5.5-2.8 c3.8-2.1,7.9-4.6,12.1-7.4s7.9-5.8,11.2-8.6c1.6-1.4,3.2-2.8,4.6-4.1s2.7-2.6,3.8-3.8s2.2-2.3,3.1-3.2s1.6-1.8,2.2-2.5l1.4-1.6 C195.3,209.3,195.5,209.1,195.7,208.9z"></path> <path class="st3" d="M135.2,321.2c-0.1,0-0.3-16.1-0.3-35.9s0.1-35.9,0.3-35.9s0.3,16.1,0.3,35.9S135.4,321.2,135.2,321.2z"></path> <path class="st3" d="M137.4,403c-0.1,0-0.3-11.3-0.3-25.2s0.1-25.2,0.3-25.2s0.3,11.3,0.3,25.2S137.6,403,137.4,403z"></path> <g id="freepik--character-2--inject-624"> <path class="st0" d="M292.6,368.4l3.2,22.3c0,0,23.8,4.2,24.8,8.3l-43,7.8l-6.5-34.6L292.6,368.4z"></path> <path class="st4" d="M282.2,391.3c-0.8,0.4-1.2,1.4-0.9,2.2c0.4,0.8,1.3,1.2,2.2,0.9c0.9-0.4,1.2-1.5,0.9-2.4 c-0.5-0.8-1.6-1.1-2.4-0.6"></path> <path class="st3" d="M277.6,406.8l-0.5-3.5l41.5-6.2c0,0,2.1,0.5,2.1,1.9L277.6,406.8z"></path> <path class="st3" d="M296.5,390.4c0,0.2-1,0.5-1.9,1.3s-1.3,1.9-1.5,1.8c-0.2,0-0.1-1.3,1-2.4C295.2,390.1,296.5,390.2,296.5,390.4 z"></path> <path class="st3" d="M301.3,391.4c0.1,0.2-0.8,0.7-1.3,1.7s-0.6,2-0.8,2s-0.6-1.1,0.1-2.4C300.1,391.5,301.3,391.2,301.3,391.4z"></path> <path class="st3" d="M304.9,396.3c-0.2,0.1-0.7-0.9-0.4-2.2c0.3-1.3,1.2-1.9,1.3-1.7c0.1,0.2-0.4,0.9-0.6,1.9 C305,395.4,305.1,396.3,304.9,396.3z"></path> <path class="st3" d="M295.2,385.3c-0.1,0.2-1.1,0.1-2.3,0.4c-1.2,0.3-2,0.8-2.2,0.7s0.6-1.1,2-1.4 C294.2,384.7,295.3,385.2,295.2,385.3z"></path> <path class="st0" d="M265.6,360.6l-12.9,18.5c0,0,14.5,19.3,12.5,22.9l-36.8-23.6l18.8-29.7L265.6,360.6z"></path> <path class="st4" d="M242.4,370.3c-0.9-0.3-1.8,0.2-2.1,1c-0.3,0.9,0.2,1.8,1,2.1c0.9,0.3,1.9-0.2,2.3-1.1c0.2-0.9-0.4-1.9-1.4-2.1 "></path> <path class="st3" d="M228.5,378.5l2-2.9l34.6,23.8c0,0,1.2,1.8,0.3,2.8L228.5,378.5z"></path> <path class="st3" d="M253.5,379.3c-0.1,0.2-1.1-0.3-2.3-0.3s-2.2,0.5-2.3,0.3c-0.1-0.2,0.8-1,2.3-1 C252.6,378.3,253.6,379.2,253.5,379.3z"></path> <path class="st3" d="M256.3,383.4c-0.1,0.2-1,0-2.1,0.3s-1.8,1.1-2,0.9c-0.2-0.1,0.4-1.2,1.8-1.7 C255.3,382.6,256.4,383.2,256.3,383.4z"></path> <path class="st3" d="M255.6,389.4c-0.2-0.1,0.1-1.1,1.2-1.8c1.1-0.7,2.2-0.5,2.2-0.4c0,0.2-0.9,0.4-1.8,1 C256.3,388.8,255.7,389.5,255.6,389.4z"></path> <path class="st3" d="M255.9,374.8c-0.2,0.1-0.8-0.7-1.9-1.2c-1.1-0.6-2.1-0.8-2.1-1s1.2-0.4,2.4,0.3 C255.6,373.6,256.1,374.7,255.9,374.8z"></path> <path class="st5" d="M313.4,117.5l-16.9,15.6l1.1,4.9l6.6,9.6c0,0,2.6,1.8,8.3-6.1c5.6-7.9,11.9-22.8,11.9-22.8L313.4,117.5z"></path> <path class="st3" d="M341.1,86.2c-0.3-0.5-0.8-0.7-1.4-0.7l-9.5,0.3c-0.8,0-1.6,0.4-2.1,1L305.2,114l1.4,1l10.4,0.8l24.4-29.2 L341.1,86.2z"></path> <path class="st6" d="M334,89.2c0.3,0.2,0.6,0.1,0.8-0.1c0.3-0.2,0.3-0.5,0.2-0.8l0,0c-0.2-0.2-0.6-0.2-0.8,0.1 C333.9,88.6,333.8,88.9,334,89.2L334,89.2z"></path> <path class="st7" d="M341.3,86.5c-0.6,0.1-1.2,0.2-1.8,0.2l-5,0.2L331,87c-0.6,0-1.2,0.2-1.5,0.7l-1.3,1.6l-5.8,7 c-4.2,4.9-8,9.4-10.7,12.6l-3.3,3.8c-0.4,0.5-0.8,0.9-1.3,1.3c0.3-0.5,0.7-1,1.1-1.5l3.2-3.9c2.7-3.3,6.4-7.8,10.6-12.7l5.9-6.9 l1.3-1.6c0.5-0.5,1.2-0.8,1.9-0.8l3.5-0.1l5.1-0.1C340.1,86.5,340.7,86.5,341.3,86.5z"></path> <path class="st5" d="M332.4,92.9c0,0-0.9-0.3-1.7,2.2c-0.8,2.5-3.3,9.7-3.3,9.7l-4.6-3.1l-6.2,0.1c0,0-1.5,1.1-0.6,1.9 c0.9,0.8,4.7,1.9,4.7,1.9l2.4,4.4l-7.7-4.8c0,0-2.8,0.4-2.2,2.2c0.6,1.8,5.5,7.6,5.5,7.6l-4.1-0.8l-4.5-3.5c0,0-1.5-0.1-1.1,1.2 s5,6.5,5,6.5l5.8,3.7c0,0,3.4,0.1,3.8-0.8c0.3-0.8,0.5-1.5,0.6-2.3c0,0,1.8-0.3,2.3-1.1c0.3-0.7,0.4-1.5,0.4-2.2 c0,0,2.7,0.8,3.3-0.7c0.5-1.9,0.6-3.9,0.4-5.9c-0.2-1.2,2.6-12.2,2.5-12.6C333.1,96,334.3,92.4,332.4,92.9z"></path> <path class="st8" d="M323.9,121.1c-0.5,0.2-1.1,0.4-1.7,0.3c-1.4,0-2.7-0.2-4-0.6c-1.3-0.5-2.5-1.2-3.5-2.1 c-0.8-0.7-1.1-1.3-1.1-1.3c0.1,0,1.9,1.7,4.8,2.8C321.3,121.3,323.9,120.9,323.9,121.1z"></path> <path class="st8" d="M322.7,118.8c-0.1,0.1-1.1-0.6-2.2-1.7c-1.1-1.1-1.7-2.1-1.6-2.2c0.1-0.1,1,0.7,2,1.8S322.8,118.6,322.7,118.8 z"></path> <path class="st8" d="M326.5,113.8c-0.1,0.1-1.1-0.5-2.1-1.7c-1-1.1-1.5-2.2-1.4-2.3s0.9,0.9,1.8,1.9 C325.8,112.8,326.6,113.7,326.5,113.8z"></path> <path class="st8" d="M330.4,109.9c-0.2,0-0.7-1.2-1.5-2.5c-0.8-1.4-1.7-2.4-1.6-2.5s1.2,0.7,2.1,2.2 C330.1,107.9,330.4,108.9,330.4,109.9z"></path> <path class="st7" d="M244.3,23.7c-3.8,2.5-9.6,6.4-12.9,9.5c-0.8,0.7-1.5,1.9-0.9,2.7s2.4,0.9,3.4,0.9c3.2,0.1,10.6-1.3,15.1-4.4 L244.3,23.7z"></path> <path class="st3" d="M250.9,46.4c-2.2-4.2-4.1-8.5-5.5-13c-1.5-4.5-1.8-9.3-0.9-14c0.1-0.7,1.6-5.5,2.3-5.4c0.5,0-0.2,4.3,0.1,4.7 c3.1,3.8,4.5,8.7,4.8,13.6C251.9,37,251.7,41.8,250.9,46.4"></path> <path class="st5" d="M281.2,96.9c-7.3,0.9-25.8-17.5-26.9-24.8l-6.5-43.5C245.7,17,250.7,6,262.4,4.2l1.1-0.1 c11-1,20.9,6.5,22.8,17.4c1.8,10.1,3.6,21.3,4.1,26.7c0.9,11.3-10.2,14.1-10.2,14.1s0.3,2.6,0.8,6c1,7.4,7.3,27.7-0.1,28.6 L281.2,96.9z"></path> <path class="st8" d="M280.1,62.4c-5.2,0.5-10.5-0.5-15.1-3c0,0,4.4,8.2,15.5,6.1L280.1,62.4z"></path> <path class="st3" d="M283.9,31.3c0.1,0.9-0.5,1.7-1.4,1.8c-0.8,0.1-1.7-0.4-1.8-1.3l0,0c-0.1-0.9,0.5-1.7,1.4-1.8 C283,29.9,283.8,30.5,283.9,31.3L283.9,31.3z"></path> <path class="st3" d="M284.3,26.8c-0.2,0.2-1.5-0.6-3.2-0.4s-2.9,1.2-3.1,1s0.1-0.5,0.6-0.9c0.7-0.6,1.6-0.9,2.5-1s1.8,0.1,2.6,0.6 C284.2,26.3,284.4,26.7,284.3,26.8z"></path> <path class="st3" d="M268.2,33.6c0.1,0.9-0.5,1.6-1.4,1.8c-0.8,0.1-1.6-0.4-1.8-1.3l0,0c-0.1-0.9,0.5-1.7,1.4-1.8 C267.2,32.1,268,32.7,268.2,33.6z"></path> <path class="st3" d="M267.3,28.8c-0.2,0.2-1.5-0.6-3.2-0.4s-2.9,1.2-3.1,1s0.1-0.5,0.6-0.9c0.7-0.6,1.6-1,2.5-1 c0.9-0.1,1.8,0.1,2.6,0.6C267.2,28.3,267.4,28.7,267.3,28.8z"></path> <path class="st3" d="M274.8,41.5c0.9-0.4,1.8-0.6,2.8-0.8c0.4-0.1,0.8-0.2,0.9-0.5c0-0.5-0.2-0.9-0.4-1.3c-0.5-1-1.1-2.1-1.6-3.2 c-2.3-4.6-4-8.5-3.8-8.5s2.2,3.6,4.5,8.2c0.5,1.1,1.1,2.2,1.5,3.3c0.3,0.5,0.5,1.1,0.4,1.7c-0.1,0.3-0.4,0.6-0.7,0.7 c-0.2,0.1-0.5,0.1-0.8,0.1C276.7,41.5,275.8,41.6,274.8,41.5z"></path> <path class="st3" d="M266.5,22.3c-0.2,0.5-1.9,0.2-4,0.3c-2.1,0.2-3.7,0.6-4,0.2c-0.1-0.2,0.2-0.6,0.8-1.1c1.9-1.1,4.2-1.3,6.2-0.4 C266.3,21.7,266.7,22.1,266.5,22.3z"></path> <path class="st3" d="M283.5,22.8c-0.3,0.4-1.8,0.2-3.5,0.3c-1.7,0.2-3.1,0.6-3.5,0.2c-0.2-0.2,0-0.6,0.6-1c0.8-0.6,1.8-0.9,2.7-1 c1-0.1,2,0.1,2.9,0.5C283.4,22.2,283.6,22.6,283.5,22.8z"></path> <path class="st5" d="M249.5,36.9c-0.2-0.1-8-1.6-7,6.1c1,7.7,8.5,5.1,8.5,4.9S249.5,36.9,249.5,36.9z"></path> <path class="st8" d="M248.2,45.4c0,0-0.1,0.1-0.3,0.2c-0.3,0.2-0.6,0.2-1,0.2c-0.9-0.2-1.7-1.4-1.9-2.8c-0.1-0.7-0.1-1.3,0.1-2 c0.1-0.5,0.4-0.9,0.9-1.2c0.3-0.1,0.7,0,0.8,0.3c0.1,0.2,0.1,0.4,0.1,0.4c0.1,0,0.1-0.2,0-0.5c-0.1-0.2-0.2-0.3-0.4-0.4 c-0.2-0.1-0.5-0.2-0.8-0.1c-0.6,0.2-1.1,0.7-1.2,1.4c-0.2,0.7-0.3,1.5-0.2,2.2c0.3,1.5,1.2,2.9,2.4,3.1c0.4,0.1,0.9-0.1,1.2-0.4 C248.2,45.6,248.3,45.4,248.2,45.4z"></path> <path class="st3" d="M279.5,9.5c1.1-0.9-3.1-4.4-6.4-5.3c-4.9-1.5-12.1-1.8-16.2,0c-4.9,2.2-8.9,5.3-10.8,10.3 c-1.8,5.1-2.3,10.6-1.3,15.9c0.2,1.6,0.8,3.2,1.8,4.5c1.3,1.6,3.5,2.3,3.7,4.7c0.1,0.9,0.5,1.7,1.1,2.2c1.6,1.3,3.1-0.3,3.8-1.9 c1.3-3.2,1-6.9,0.7-10.3c-0.1-2.5-0.6-4.9-1.5-7.2c-0.6-1.2-1.3-2.4-1.8-3.6c-0.6-1.2-0.6-2.7,0-3.9c0.2-0.3,0.3-0.5,0.5-0.7 c1.9-2.2,4.9-3.2,7.8-2.6c4.5,0.9,12.2,2.2,14,0.5c2.5-2.5,3-4,3-4L279.5,9.5z"></path> <path class="st3" d="M270.2,43.1c-0.1,0-0.1,0.5,0.2,1.1c0.3,0.9,0.9,1.6,1.7,2.1c0.7,0.5,1.5,0.8,2.4,1c0.6,0.1,1,0.2,1.1,0 c0.1-0.1-0.3-0.3-0.9-0.6c-0.7-0.3-1.5-0.7-2.1-1.1C270.9,44.6,270.4,43,270.2,43.1z"></path> <path class="st7" d="M275.6,3.5c-6.7-4.4-15.4-4.7-22.4-0.7c-6.4,3.8-11.7,11.5-11.2,18.8l1.1,5.3l0.9-0.7c6-3.4,12.7-7.3,16.7-8.8 c8.3-3.1,23.5-2.7,23.5-2.7C282.5,10.2,279.5,6.3,275.6,3.5z"></path> <path class="st3" d="M276,10.3c-0.6-0.6-1.4-1-2.3-1c-3-0.3-6,0.1-8.8,1.2c-0.7,0.2-1.4,0.6-2,1c-0.6,0.5-0.8,1.4-0.5,2.1 c0.5,0.9,1.8,1,2.8,0.8c1.1-0.1,2.2-0.5,3.2-1c2-0.6,4.1-0.9,6.2-0.8c0.3,0,0.7,0,1-0.1c0.7-0.4,0.9-1.3,0.5-2 C276.2,10.4,276.1,10.3,276,10.3z"></path> <path class="st3" d="M267.3,12.4c2.5,0.2,4.4,2.3,4.2,4.8c0,0.6-0.2,1.3-0.5,1.8c1.1-0.5,1.8-1.5,2.1-2.6c0.5,0.8,0.6,1.7,0.4,2.5 c0.9-0.7,1.6-1.6,2.1-2.7c0.4,0.9,0.6,1.8,0.6,2.8c1-0.9,1.7-2.1,1.8-3.4c0.1-1.3-0.2-2.7-0.7-3.9c-0.4-0.9-1.1-1.7-2-2.1 c-0.9-0.2-1.8-0.2-2.7,0.1c-1.9,0.3-3.8,0.9-5.6,1.6"></path> <path class="st3" d="M283.9,12.7c-0.6,0-1.1,0.1-1.7,0c-0.5,0-1.2,0-2,0s-1.7,0-2.6,0.1c-2.3,0.1-4.5,0.3-6.8,0.6 c-2.7,0.4-5.5,1-8.2,1.7c-2.7,0.8-5.3,1.7-7.9,2.7c-2.1,0.9-4.1,1.9-6.1,2.9c-0.9,0.4-1.6,0.9-2.3,1.3c-0.7,0.4-1.2,0.7-1.7,1 s-1,0.6-1.5,0.9c0.4-0.4,0.9-0.7,1.3-1s1-0.7,1.7-1.1s1.4-0.9,2.2-1.4c2-1.1,4-2.1,6.1-3c5.2-2.2,10.6-3.7,16.1-4.5 c2.3-0.3,4.5-0.5,6.8-0.5c1-0.1,1.9,0,2.6,0c0.8,0,1.4,0,2,0.1C282.8,12.5,283.3,12.6,283.9,12.7z"></path> <path class="st3" d="M257.9,1.2c0.1,0.1-0.8,0.8-1.8,2.1c-2.8,3.5-4.4,8-4.3,12.5c0,1.7,0.2,2.8,0.1,2.8s-0.1-0.3-0.2-0.7 c-0.2-0.7-0.2-1.4-0.3-2.1c-0.3-4.7,1.3-9.2,4.4-12.7c0.4-0.5,0.9-1,1.5-1.5C257.6,1.3,257.9,1.2,257.9,1.2z"></path> <path class="st3" d="M270.8,9.9c-0.3-0.6-0.7-1.2-0.9-1.9c-0.8-1.5-1.8-2.8-3-4c-1.2-1.1-2.6-2.1-4.1-2.8c-0.7-0.2-1.3-0.5-1.9-0.8 c0.7,0,1.4,0.2,2.1,0.5c3.3,1.3,5.9,3.7,7.3,6.9C270.6,8.5,270.8,9.2,270.8,9.9z"></path> <g class="st9"> <path d="M244,26.2c-4.5,2.9-9.4,5.8-12.5,10.4c0.7,0.2,1.4,0.3,2.1,0.3c2.1,0,4.1-0.2,6.1-0.6c2-0.4,4-1.1,5.8-2L244,26.2z"></path> </g> <path class="st3" d="M236.3,185.3l0.1,31.6l7.8,24.9l1.1,5.5l8.1,26.6c0,0,2.8,25.8,3,31.5s15.4,83.5,15.4,83.5l24.7-5.1 c0,0-9.5-117.6-9.7-118.9s-1.2-89-1.2-89L236.3,185.3z"></path> <path class="st3" d="M300,179.8c0,0,16.5,104.4,15.1,110.8c-1.3,6.4-56.2,81.9-56.2,81.9l-23.4-12.8l41.4-79.8L264,180L300,179.8z"></path> <path class="st7" d="M287.1,209.9c0.1,0,1.3,26.8,2.7,59.9c1.3,33.1,2.3,60,2.1,60c-0.1,0-1.3-26.8-2.7-59.9 C287.9,236.7,286.9,209.9,287.1,209.9z"></path> <path class="st7" d="M253.2,273.9c0,0.1,0,0.2,0,0.3l0.1,0.8c0.1,0.7,0.2,1.7,0.3,2.9c0.2,2.5,0.6,6.2,1,10.8 c1,9.1,2.6,21.6,4.9,35.3c2.4,13.7,4.8,26.1,6.5,35c0.8,4.5,1.5,8.1,2,10.6c0.2,1.2,0.4,2.2,0.5,2.9c0,0.3,0.1,0.6,0.1,0.8 c0,0.1,0,0.2,0,0.3c0-0.1,0-0.2,0-0.3c0-0.2-0.1-0.5-0.2-0.8c-0.1-0.7-0.3-1.7-0.6-2.9c-0.5-2.5-1.2-6.1-2.2-10.6 c-1.8-8.9-4.3-21.3-6.6-35s-3.9-26.2-4.7-35.3c-0.4-4.6-0.7-8.2-0.9-10.8c-0.1-1.2-0.1-2.2-0.2-2.9c0-0.3,0-0.6,0-0.8 C253.3,274,253.3,273.9,253.2,273.9z"></path> <path class="st7" d="M268.8,210.6c0.1,0.1-4.1,3.2-9.2,7s-9.5,6.7-9.6,6.6s4.1-3.2,9.2-7S268.7,210.5,268.8,210.6z"></path> <path class="st0" d="M305.8,121.8l14.3,9.2c0,0-16.1,24.6-21.4,30.3c-5.3,5.7-2.8-32.4-2.8-32.4L305.8,121.8z"></path> <path class="st0" d="M252.5,61.8l-4,8.1l-19,10.8l2,70.3l4.2,62.4c0,0,6.2-12.9,12.4-14c6.2-1.2,39,2.5,41.4,3.7l1.9-14.6l6,15.6 c0,0,6.1,0.4,7.7-8.9l-6.3-30.3c0,0-4.8-55.7-6.4-64c-1.5-8.3-10.9-30.4-10.9-30.4l-1,7.1l-20.8-12.7L252.5,61.8z"></path> <path class="st0" d="M234.9,77.6c0,0-13.3,2.2-13.6,27.4s-2.2,52.8,2.6,62.1c4.8,9.4,21.9,35.8,21.9,35.8l16.1-9l-14.2-43.5l1-45.1 C248.7,105.4,245.2,77.8,234.9,77.6z"></path> <path class="st5" d="M271,202.7c0,0-9.7-8.3-10.3-7.9l-12.8,7.1c0.3,3.5,0.9,7,1.8,10.5c1.3,4.9,3.1,10.1,3.1,10.1l16.3-12.4 c0.7,1.9,1.6,3.8,2.7,5.5c1.3,1.9,4.4-0.8,4.4-0.8L271,202.7z"></path> <path class="st3" d="M248.7,105.4c0,0,0,0.3,0,0.8s0,1.3,0,2.4l-0.2,9c-0.2,7.8-0.4,19.1-0.6,32.9v-0.1c4,12.4,9,27.3,14.3,43.5 v0.2l-0.2,0.1l-16.1,9l-0.2,0.1l-0.1-0.2c-2.4-3.8-4.9-7.7-7.5-11.7c-4.5-7.2-8.9-14.3-12.9-21.2c-0.5-0.9-1-1.8-1.4-2.6 c-0.2-0.4-0.4-0.9-0.6-1.4s-0.4-0.9-0.5-1.4c-0.3-0.9-0.5-1.9-0.7-2.9s-0.4-1.9-0.5-2.9c-0.5-3.8-0.8-7.5-0.8-11.3 c-0.2-7.4-0.1-14.4,0.1-21c0.1-6.6,0.3-12.7,0.4-18.2c0-2.8,0.1-5.5,0.3-8l0.4-3.6c0.2-1.2,0.5-2.3,0.7-3.4 c0.8-3.7,2.4-7.3,4.6-10.4c1.4-1.9,3.3-3.5,5.5-4.6c0.6-0.3,1.1-0.5,1.7-0.7l0.5-0.1h0.2l-0.6,0.2c-0.6,0.2-1.2,0.4-1.7,0.7 c-2.1,1.1-3.9,2.7-5.3,4.7c-2.2,3.1-3.7,6.6-4.5,10.3c-0.2,1-0.5,2.2-0.6,3.4c-0.2,1.2-0.3,2.4-0.4,3.6c-0.1,2.5-0.2,5.1-0.2,7.9 c-0.1,5.6-0.2,11.7-0.4,18.2c-0.1,6.6-0.3,13.6,0,20.9c0.1,3.8,0.4,7.5,0.9,11.3c0.2,1,0.3,1.9,0.5,2.9s0.4,1.9,0.7,2.8 c0.1,0.5,0.3,0.9,0.5,1.4s0.4,1,0.6,1.3c0.5,0.9,0.9,1.8,1.4,2.6c4,7,8.4,14,12.9,21.2l7.5,11.7h-0.7l16.1-8.9l-0.1,0.3 c-5.3-16.3-10.2-31.2-14.3-43.6v-0.1l0.8-32.9c0.1-3.9,0.2-6.9,0.3-9c0-1,0.1-1.8,0.1-2.4C248.7,105.6,248.7,105.4,248.7,105.4z"></path> <path class="st3" d="M280.4,77.5c-0.1,0.3-0.1,0.7-0.2,1l-0.8,2.7l-3.1,9.4l-0.1,0.4l-0.3-0.3c-1.9-1.9-4.2-4-6.6-6 c-4-3.5-8.2-6.8-12.6-9.8c-1.7-1.2-3.1-2.1-4-2.7c-0.5-0.3-1-0.6-1.5-1c0.5,0.2,1.1,0.5,1.6,0.8c1,0.6,2.4,1.4,4.1,2.6 c4.5,2.9,8.7,6.2,12.8,9.7c2.4,2.1,4.6,4.2,6.6,6.1l-0.4,0.1l3.2-9.3l1-2.6C280.1,78.1,280.2,77.8,280.4,77.5z"></path> <path class="st3" d="M285.5,80.4c0.2-0.1,1.5,2.9,1.6,7.2v0.7l-0.5-0.6c-0.3-0.3-0.5-0.7-0.7-1c-1.3-2-2.2-4-2.9-5.3 s-1.3-2.1-1.2-2.2c0.6,0.6,1.1,1.2,1.5,2c0.9,1.3,1.8,3.3,3.1,5.2c0.2,0.4,0.5,0.7,0.7,1l-0.5,0.1c0-1.7-0.2-3.4-0.6-5.1 C285.7,81.2,285.4,80.5,285.5,80.4z"></path> <path class="st3" d="M281.8,80.9c0,0.1,0,0.2,0,0.3c0,0.2,0.1,0.5,0.1,0.8c0.1,0.7,0.3,1.8,0.5,3.1c0.4,2.7,0.9,6.6,1.4,11.5 c1.1,9.7,2,23.2,3.2,38c1.2,14.9,2.2,28.3,2.9,38c0.3,4.8,0.6,8.8,0.8,11.5c0.1,1.3,0.2,2.4,0.2,3.1c0,0.3,0,0.6,0,0.8 c0,0.1,0,0.2,0,0.3c0-0.1,0-0.2,0-0.3c0-0.2-0.1-0.5-0.1-0.8c-0.1-0.8-0.2-1.8-0.3-3.1l-1-11.5c-0.8-9.8-1.9-23.2-3.1-38.1 s-2.1-28.3-3.1-38c-0.5-4.9-0.9-8.8-1.3-11.5c-0.2-1.3-0.3-2.4-0.4-3.1c-0.1-0.3-0.1-0.6-0.1-0.8C281.8,81.1,281.8,81,281.8,80.9z"></path> <path class="st3" d="M293.7,108.6c0.1,0,1.4,12.6,2.8,28.2s2.5,28.2,2.3,28.2s-1.4-12.6-2.8-28.2S293.6,108.7,293.7,108.6z"></path> <path class="st3" d="M250.2,93.8c-0.1,0-0.3-1.2-1.1-3c-2.1-4.8-6.5-8.2-11.6-9.1c-2-0.4-3.2-0.3-3.2-0.4c0.3-0.1,0.6-0.1,0.9-0.1 c0.8,0,1.6,0,2.4,0.1c5.4,0.7,9.9,4.3,11.9,9.3c0.3,0.7,0.5,1.5,0.7,2.3C250.2,93.1,250.2,93.5,250.2,93.8z"></path> <g class="st9"> <path d="M298.9,160.8c2.1-10.8,1-22-3.2-32.2c1.1,10.8,2.2,21.6,3.3,32.4"></path> </g> <path class="st6" d="M248.4,116.9c-0.4,0-0.7-0.1-1-0.2l-2.8-0.6c-2.4-0.5-5.7-1.2-9.3-2s-7-1.3-9.4-1.7l-2.9-0.5 c-0.4,0-0.7-0.1-1.1-0.2c0.3,0,0.7,0,1,0c0.7,0.1,1.7,0.2,2.9,0.3c2.4,0.3,5.8,0.9,9.4,1.6c3.7,0.7,7,1.5,9.3,2.1 c1.2,0.3,2.1,0.6,2.8,0.8C247.7,116.6,248,116.7,248.4,116.9z"></path> <path class="st6" d="M247.2,87.3c-1,0-2-0.1-3-0.3c-1.9-0.2-4.4-0.6-7.3-0.8c-2.9-0.3-5.5-0.4-7.3-0.5c-1,0-2.1-0.1-3.1-0.2 c1-0.1,2-0.2,3-0.1c1.9,0,4.5,0.1,7.4,0.3s5.5,0.7,7.3,1C245.2,86.7,246.2,87,247.2,87.3z"></path> <path class="st6" d="M257.6,75.6c-2.7,1.3-5.5,2.4-8.3,3.4c-2.8,1.1-5.6,2.1-8.5,2.9c2.7-1.3,5.5-2.4,8.3-3.4 C251.8,77.3,254.7,76.3,257.6,75.6z"></path> <path class="st6" d="M258.4,65.1c-0.4,1.4-1.1,2.7-1.8,4c-0.6,1.3-1.4,2.6-2.3,3.7c0.4-1.4,1.1-2.7,1.8-4 C256.7,67.5,257.5,66.3,258.4,65.1z"></path> <path class="st6" d="M274.3,74.7c-0.5,1.7-1.2,3.3-2.1,4.9c-0.7,1.6-1.6,3.2-2.5,4.7c0.5-1.7,1.2-3.3,2.1-4.9 C272.5,77.7,273.3,76.2,274.3,74.7z"></path> <path class="st6" d="M284.4,104.6c-0.5,0.1-0.9,0.1-1.4,0.1c-0.9,0.1-2.2,0.1-3.8,0.2c-3.2,0.1-7.7,0.2-12.6,0.1 c-4.9-0.1-9.3-0.2-12.6-0.4c-1.6-0.1-2.9-0.2-3.8-0.3c-0.5,0-0.9-0.1-1.4-0.2c0.5-0.1,0.9-0.1,1.4,0l3.8,0.1 c3.2,0.1,7.6,0.2,12.5,0.3s9.3,0.1,12.6,0.1h3.8C283.5,104.5,284,104.6,284.4,104.6z"></path> <path class="st6" d="M292.7,101.9c-2.7,0.1-5.5-0.2-8.1-0.8c1.4-0.1,2.7-0.1,4.1,0.1C290,101.3,291.4,101.5,292.7,101.9z"></path> <path class="st6" d="M287.6,140.5c0,0.1-8.8,0.2-19.7,0s-19.7-0.3-19.7-0.5s8.8-0.2,19.7,0C278.8,140.1,287.6,140.4,287.6,140.5z"></path> <path class="st6" d="M296.3,138.2c-1.5,0.1-2.9,0.1-4.4,0c-1.5,0.1-2.9,0-4.4-0.2C290.4,137.5,293.4,137.6,296.3,138.2z"></path> <path class="st6" d="M311,143.9c-2.4-2.5-4.6-5.1-6.7-7.9c-3.6-4.4-6.4-8.1-6.3-8.2c2.4,2.5,4.6,5.1,6.7,7.9 C306.9,138.3,309,141,311,143.9z"></path> <path class="st6" d="M247.2,147c0,0.1-5.9,0.2-13.1,0.2S221,147,221,146.9s5.9-0.2,13.1-0.2S247.2,146.9,247.2,147z"></path> <path class="st6" d="M289.8,171.2c-0.4,0.1-0.9,0.2-1.4,0.2c-0.9,0.1-2.1,0.3-3.7,0.4c-3.1,0.3-7.5,0.6-12.3,0.7s-9.2-0.1-12.3-0.3 c-1.6-0.1-2.9-0.2-3.7-0.3c-0.5,0-0.9-0.1-1.4-0.2c0.5,0,0.9,0,1.4,0l3.7,0.1c3.1,0.1,7.5,0.2,12.3,0.1s9.1-0.3,12.3-0.6l3.7-0.3 C288.8,171.1,289.3,171.1,289.8,171.2z"></path> <path class="st6" d="M299.7,170c-3.2,0.4-6.5,0.5-9.8,0.2c1.6-0.3,3.3-0.4,4.9-0.4C296.4,169.7,298,169.7,299.7,170z"></path> <path class="st6" d="M258.1,181.7c-0.8,0.7-1.7,1.3-2.6,1.9c-1.6,1.1-3.9,2.5-6.5,3.9s-5,2.6-6.8,3.4c-0.9,0.5-1.9,0.9-2.9,1.2 c0.9-0.6,1.8-1.1,2.8-1.5c1.7-0.9,4.1-2.1,6.7-3.6c2.6-1.4,4.9-2.8,6.6-3.8C256.2,182.6,257.2,182.1,258.1,181.7z"></path> <g class="st9"> <path d="M248.6,109.3c-0.7,23.5-0.7,45.7-0.7,42.7l14.1,42.1l5.2,5.5C258.8,171.1,250.5,138.6,248.6,109.3z"></path> </g> </g> </svg> 