<?xml version="1.0" encoding="UTF-8"?> <!-- Generator: Adobe Illustrator 22.0.1, SVG Export Plug-In . SVG Version: 6.00 Build 0) --> <svg xmlns="http://www.w3.org/2000/svg" xmlns:xlink="http://www.w3.org/1999/xlink" version="1.1" id="Capa_1" x="0px" y="0px" viewBox="0 0 500 500" style="enable-background:new 0 0 500 500;" xml:space="preserve"> <style type="text/css"> .st0{fill:#6D107D;} .st1{fill:#FFFFFF;} .st2{opacity:0.46;} .st3{fill:#263238;} .st4{fill:#FFBE9D;} .st5{fill:#F5F5F5;} .st6{fill:#E0E0E0;} .st7{fill:#EB996E;} .st8{fill:#455A64;} .st9{fill:#FAFAFA;} </style> <circle class="st0" cx="257.9" cy="246" r="12.9"></circle> <path class="st0" d="M110.7,243.5h194.8c7.4,0,13.4,6,13.4,13.4v105.1c0,7.4-6,13.4-13.4,13.4H110.7c-7.4,0-13.4-6-13.4-13.4l0,0 V256.9C97.3,249.5,103.2,243.5,110.7,243.5C110.6,243.5,110.6,243.5,110.7,243.5z"></path> <polyline class="st0" points="232,371.1 284.4,417.6 288.7,371.9 "></polyline> <circle class="st1" cx="166.3" cy="311.3" r="12.9"></circle> <circle class="st1" cx="210.7" cy="311.3" r="12.9"></circle> <circle class="st1" cx="255.1" cy="311.3" r="12.9"></circle> <path class="st2" d="M310.6,244l-20.8-0.6h-161c13.4,13.3,32.5,20.4,51.3,22.1s37.7-1.2,56.3-4.4s37.3-6.8,56.1-6.7 c4,0,8.1,0.2,11.8-1.3S311.1,248,310.6,244z"></path> <path class="st3" d="M235.5,56.3c-10.7,0.2-20,7.2-23.1,17.4c-1.5,5.1-1.2,10.6-2.1,15.8s-3.6,10.8-8.6,12.7c-3.3,1.2-7,0.7-10.2,2 c-5,2-7.4,7.6-5.4,12.6c0.5,1.3,1.3,2.4,2.3,3.4c-4.7,4.1-5.2,11.2-1.2,15.9c3,3.5,7.7,4.8,12.1,3.4c-1.9,3-1.2,7,0.9,9.7 c2.3,2.7,5.6,4.3,9.1,4.6c3.5,0.3,7-0.1,10.3-0.9c7.6-1.7,15.2-4.4,20.9-9.6c6.3-5.8,9.6-14,12.1-22.2c4.8-15.6,7.3-32.3,3.4-48.1"></path> <path class="st4" d="M200.7,143l-8.4,18.4l-18.4-40.7c-0.9-3.3-1.9-7-2.1-7.7c-0.3-1.1-0.4-2.3-0.3-3.5c0.1-1.5,0.3-2.9,0.8-4.3 c0.6-1.2-0.7-2.5-1.7-1.9s-2.6,4-2.6,8.3s-14.8-5.9-17.2-3.5l1.8,14.3c1.6,1.5,6.2,5.6,8.8,7.9l17.4,43.3 c2.8,7.7,11.4,11.7,19.1,8.8c3.3-1.2,6.1-3.6,7.8-6.6l11.2-19.8L200.7,143z"></path> <path class="st3" d="M161.6,95c0.3-0.1,0.6,0,0.7,0.3c0,0,0,0,0,0.1l9.6,28.4c0.2,0.5,0,1.1-0.5,1.4l-11.4,6.4 c-0.4,0.2-1,0.1-1.2-0.4c0-0.1-0.1-0.1-0.1-0.2l-10.8-29.4c-0.2-0.5,0-1.2,0.6-1.4L161.6,95z"></path> <polygon class="st5" points="161.9,97.1 170.7,122.4 159.4,128.4 149.8,101.9 "></polygon> <path class="st6" d="M151.9,103.6c0.3,0.9,0.9,2.3,1.3,3.1c0.2,0.4,0.6,0.6,1.1,0.5c0,0,0,0,0,0l6-2.5l2.1,0.3l-0.6-1.1l0.7-0.3 c0.4-0.2,0.6-0.6,0.5-1.1c0,0,0,0,0,0l-1.2-2.8c-0.2-0.4-0.7-0.6-1.1-0.4l-8.2,3.3C152,102.7,151.8,103.2,151.9,103.6 C151.9,103.6,151.9,103.6,151.9,103.6z"></path> <path class="st6" d="M157,118.6l1.3,3.1c0.2,0.4,0.6,0.6,1.1,0.5c0,0,0,0,0,0l6-2.5l2.1,0.3l-0.6-1.1l0.7-0.3 c0.4-0.2,0.6-0.6,0.5-1.1c0,0,0,0,0,0l-1.2-2.8c-0.2-0.4-0.6-0.6-1.1-0.4c0,0,0,0,0,0l-8.2,3.3C157.1,117.7,156.8,118.2,157,118.6 C157,118.6,157,118.6,157,118.6z"></path> <path class="st6" d="M164,107.2c0.4,0.8,1,2.2,1.4,3.1c0.2,0.4,0,0.9-0.4,1.1c0,0,0,0,0,0l-6,2.5l-1.2,1.7l-0.4-1.2l-0.7,0.3 c-0.4,0.2-0.9,0-1.1-0.4c0,0,0,0,0,0l-1.2-2.9c-0.2-0.4,0-0.9,0.4-1.1l8.1-3.5C163.3,106.5,163.8,106.7,164,107.2 C164,107.1,164,107.2,164,107.2z"></path> <path class="st4" d="M150.6,108.8c1.9,0.3,4.3,0.5,6.2,0.8c0.6,0,1.1,0.2,1.6,0.5c0.5,0.3,0.7,0.9,0.4,1.5c-0.3,0.6-1.1,0.6-1.7,0.6 c-1.4,0-3,0.3-4.4,0.2c1.8,0.2,3.5,0.3,5.5,0.6c0.9,0.1,1.6,0.8,1.7,1.7c-0.1,0.8-0.7,1.3-1.4,1.4c-0.7,0.1-1.5,0.1-2.2,0 c0,0-2.9,0-3.1,0.4c1.8,0,4.2,0.4,6.1,0.6c0.5,0,0.7,0.7,0.8,1.2c0.1,0.5-0.1,1-0.5,1.3c-0.2,0.1-0.5,0.1-0.7,0.1 c-2.4-0.1-3.6,0.1-6,0"></path> <path class="st7" d="M194.5,174.6c0.2-2.3,0.1-4.6-0.2-6.9c-0.5-2.2-1.3-4.4-2.3-6.5c0.5,0.5,0.9,1.1,1.2,1.7c0.8,1.5,1.3,3,1.6,4.7 c0.3,1.6,0.4,3.3,0.2,5C195,173.3,194.8,174,194.5,174.6z"></path> <path class="st7" d="M159.8,117.3c-1.4,0.1-2.8,0-4.1-0.2c-1.1-0.1-2.2-0.3-2.9-0.3c-0.4,0-0.8,0.1-1.1,0.3c0,0,0-0.1,0.2-0.3 c0.2-0.2,0.6-0.3,0.9-0.4c1,0,2,0,2.9,0.2C157.1,116.7,158.5,116.9,159.8,117.3z"></path> <path class="st7" d="M159.1,113.2c-1.4,0.1-2.7,0-4.1-0.2c-1.1-0.1-2.1-0.3-2.8-0.3s-1,0.4-1.1,0.3s0.2-0.6,1-0.7 c0.4-0.1,0.9-0.1,1.3,0l1.6,0.2C156.5,112.5,157.8,112.8,159.1,113.2z"></path> <path class="st3" d="M216.2,198.9c0,0-60.9-4.6-78.5,9.2s-9.2,36-9.2,36h99.5l3.8-45.9L216.2,198.9z"></path> <path class="st8" d="M227.7,230.5c-0.3,0-0.6,0-0.9-0.1c-0.6-0.1-1.4-0.1-2.5-0.3c-2.2-0.3-5.4-0.7-9.3-1.4 c-10.2-1.8-20.2-4.1-30.2-7c-5.8-1.7-11.3-3.4-16.4-4.7c-4.5-1.2-9.1-1.9-13.7-2.2c-3.1-0.2-6.2,0-9.3,0.5c-1.1,0.1-1.9,0.4-2.5,0.5 c-0.3,0.1-0.6,0.1-0.9,0.2c0.3-0.1,0.6-0.2,0.9-0.3c0.8-0.2,1.6-0.5,2.5-0.6c3.1-0.6,6.2-0.9,9.4-0.7c4.6,0.2,9.3,0.9,13.8,2.1 c5.1,1.2,10.6,3,16.4,4.7c9.9,2.9,19.9,5.3,30.1,7.2c3.9,0.7,7.1,1.2,9.2,1.6l2.5,0.4C227.4,230.4,227.7,230.5,227.7,230.5z"></path> <path class="st8" d="M170.2,216.8c-1.7-1.4-3.5-2.7-5.5-3.8c-2-1-4.1-1.7-6.3-2.3c0.7,0,1.4,0,2,0.2c1.6,0.3,3.1,0.9,4.5,1.6 c1.4,0.8,2.7,1.7,3.9,2.8C169.4,215.7,169.9,216.2,170.2,216.8z"></path> <path class="st3" d="M260.3,193.1c0,0-55.7,1.5-73.3,15.3s-9.2,36-9.2,36l104.4,1.6v-13.4l-13.5-1.5l-0.1-0.6 c5.3-5.8,1.3-25.8-7.5-36.4L260.3,193.1z"></path> <path class="st8" d="M275.9,232c-0.3,0-0.6,0-0.9-0.1c-0.6-0.1-1.4-0.1-2.5-0.3c-2.2-0.3-5.4-0.7-9.3-1.4c-10.2-1.7-20.3-4.1-30.2-7 c-5.8-1.7-11.3-3.5-16.4-4.7c-4.5-1.2-9-1.9-13.7-2.2c-3.1-0.2-6.2,0-9.3,0.5c-1.1,0.1-1.9,0.4-2.5,0.5c-0.3,0.1-0.6,0.1-0.9,0.2 c0.3-0.1,0.6-0.2,0.9-0.3c0.8-0.2,1.6-0.5,2.5-0.6c3.1-0.6,6.2-0.8,9.4-0.7c4.6,0.2,9.3,0.9,13.8,2c5.1,1.2,10.6,3,16.4,4.7 c9.9,2.9,19.9,5.3,30.1,7.1c3.9,0.7,7.1,1.2,9.3,1.6l2.5,0.4C275.3,231.8,275.6,231.9,275.9,232z"></path> <path class="st8" d="M218.4,218.2c-1.7-1.4-3.5-2.7-5.5-3.8c-2-0.9-4.1-1.7-6.3-2.3c0.7,0,1.4,0,2,0.2c3.2,0.7,6.1,2.2,8.4,4.4 C217.7,217.2,218.1,217.7,218.4,218.2z"></path> <path class="st8" d="M231.5,195.4c-0.3,0.1-0.6,0.1-0.9,0.1l-2.5,0.4c-2.1,0.3-5.2,0.8-9,1.6s-8.3,1.8-13.3,2.9 c-5.4,1.2-10.6,3.3-15.4,6.1c-2.5,1.5-4.7,3.3-6.7,5.3c-1.8,1.9-3.4,4.1-4.6,6.5c-2.1,4-3.2,8.5-3.3,13c0,3.1,0.4,6.1,1.3,9 c0.3,1,0.6,1.8,0.8,2.4c0.1,0.3,0.2,0.5,0.3,0.8c-0.2-0.2-0.3-0.5-0.4-0.8c-0.3-0.8-0.7-1.5-0.9-2.3c-2.5-7.4-1.9-15.4,1.7-22.3 c1.2-2.4,2.8-4.6,4.7-6.6c2-2.1,4.3-3.9,6.8-5.4c4.8-2.8,10-4.9,15.5-6.2c5-1.2,9.5-2.1,13.4-2.8s6.9-1.2,9.1-1.4 c1.1-0.1,1.9-0.2,2.5-0.3C230.9,195.4,231.2,195.4,231.5,195.4z"></path> <path class="st6" d="M282.2,233.2l9.5-0.6l6.3,3.7l12.1,1.3c5.8,0.3,6.7,6.5,3.1,6.5c-2.8,0-19.8,1.1-19.8,1.1l-11.3,0.3 L282.2,233.2z"></path> <path class="st8" d="M297.7,236.3c-0.4,0.4-0.9,0.6-1.5,0.7c-2.7,0.7-5.4-0.4-7-2.7c-0.3-0.4-0.6-0.9-0.6-1.5c0.1,0,0.3,0.5,0.9,1.3 c1.6,2,4.1,3,6.6,2.5C297.1,236.5,297.6,236.2,297.7,236.3z"></path> <path class="st8" d="M312.8,244c0,0.1-0.5,0.2-1.2-0.2c-0.8-0.5-1.4-1.4-1.6-2.3c-0.3-0.9-0.2-1.9,0.3-2.8c0.4-0.7,0.8-0.9,0.9-0.8 s-0.3,0.3-0.5,1c-0.3,0.8-0.3,1.7-0.1,2.5c0.2,0.8,0.6,1.6,1.3,2.1C312.3,243.9,312.8,243.9,312.8,244z"></path> <path class="st0" d="M219,117.4c0,0-11.9,26.1-11.2,30.5S212,170,212,170l2.5,28.8c0,0,44.8-5.4,45.8-5.4s-1.4-23.8-1.4-23.8 l6.8-45.7c0,0-3.1-6.2-17.3-8.4C240,114.1,219,117.4,219,117.4z"></path> <path class="st0" d="M251.8,152.5c0.6,4.7,2,9.2,4.2,13.3c0.9,1.6,1.7,3.7,3.1,4.8c2.2,1.7,5.4,0.1,7.4-1.8s4-4.3,6.8-4.4 c1.8-0.1,3.4,0.9,5.1,1.2s4-0.2,4.4-1.9c0.1-1-0.1-2-0.7-2.9c-4.2-8.4-7.5-17.3-9.7-26.5c-0.9-2.6-2.1-5.1-3.5-7.5 c-1-1.7-3.6-4.1-6.1-6.2"></path> <path class="st0" d="M227.5,115.6c-12.3,0.4-21.6,8.6-24.2,14.5c-3.1,6.9-5.5,15.2-9.1,21.9c-0.8,1.2-1.4,2.6-1.9,4 c-0.4,1.5,0.1,3,1.4,3.9c1.9,1.1,4.6-0.3,6.3,1c0.9,0.7,1.2,2,2,2.9c1,1.1,2.6,1.3,4,1.4l8.3,0.9"></path> <path class="st3" d="M249,141.1c-0.2-0.3-0.4-0.6-0.5-1c-0.4-0.9-0.6-1.9-0.7-2.9c-1-6.9,2.9-13.5,9.5-15.9c0.9-0.3,1.9-0.6,2.9-0.7 c0.4-0.1,0.7-0.1,1.1,0c-1.3,0.3-2.6,0.6-3.9,1.1c-6.2,2.5-10,8.8-9.2,15.5C248.3,138.5,248.6,139.8,249,141.1z"></path> <path class="st3" d="M215.1,130.9c-0.2,0.5-0.4,0.9-0.6,1.3c-0.2,0.4-0.5,0.9-0.8,1.5s-0.6,1.3-0.9,2c-0.8,1.8-1.4,3.6-1.9,5.5 c-0.6,2.3-1.1,4.6-1.4,7c-0.2,2.4-0.3,4.7-0.2,7.1c0.1,1.9,0.3,3.9,0.7,5.8c0.1,0.8,0.3,1.5,0.5,2.2s0.3,1.2,0.4,1.6 c0.1,0.5,0.3,0.9,0.3,1.4c-0.2-0.4-0.4-0.9-0.5-1.4c-0.2-0.5-0.4-1.1-0.5-1.6c-0.2-0.6-0.4-1.4-0.5-2.2c-0.4-1.9-0.7-3.9-0.8-5.8 c-0.3-4.8,0.2-9.6,1.6-14.3c0.6-1.9,1.3-3.7,2.1-5.5c0.3-0.7,0.6-1.4,1-2c0.3-0.5,0.5-1,0.9-1.5 C214.5,131.7,214.8,131.3,215.1,130.9z"></path> <path class="st9" d="M282.1,160.1c0,0,0,0.1-0.1,0.3c-0.1,0.3-0.3,0.5-0.6,0.7c-0.9,0.6-2,0.9-3.1,0.7c-1.4-0.2-2.9-1-4.5-1.3 c-1.9-0.2-3.7,0.4-5.1,1.7c-1.6,1.3-2.9,2.8-4.4,3.8c-0.7,0.5-1.5,0.9-2.3,1.1c-0.7,0.1-1.5,0.2-2.3,0.1c-1.1,0-2.1-0.4-3.1-0.9 c-0.2-0.2-0.5-0.4-0.6-0.6c-0.1-0.2-0.2-0.3-0.1-0.3c0.3,0.3,0.6,0.5,0.9,0.7c0.9,0.5,2,0.7,3,0.7c0.7,0,1.4,0,2.1-0.2 c0.8-0.2,1.5-0.6,2.2-1.1c1.4-1,2.7-2.5,4.3-3.8c0.8-0.7,1.7-1.2,2.7-1.5c0.9-0.3,1.9-0.4,2.9-0.2c1.8,0.4,3.2,1.2,4.5,1.4 c1,0.2,2.1,0,3-0.5C281.6,160.7,281.9,160.4,282.1,160.1z"></path> <path class="st9" d="M279.2,154.3c0,0.1,0,0.2-0.1,0.3c-0.1,0.3-0.3,0.5-0.5,0.7c-0.8,0.6-1.9,0.9-2.9,0.6c-1.3-0.2-2.6-1.1-4.2-1.1 c-1.8,0-3.5,0.6-4.9,1.6c-1.6,1.1-2.9,2.3-4.3,3.2c-1.2,0.9-2.6,1.5-4.1,1.7c-1,0.2-2.1,0-3-0.4c-0.3-0.1-0.7-0.3-0.9-0.6 c0,0,0.3,0.2,1,0.4c0.9,0.3,1.9,0.4,2.8,0.2c1.4-0.3,2.7-0.9,3.9-1.7c1.3-0.9,2.7-2.2,4.3-3.3c1.5-1.1,3.3-1.7,5.2-1.7 c0.8,0.1,1.6,0.3,2.3,0.6c0.6,0.3,1.3,0.5,1.9,0.7c0.9,0.3,1.9,0.1,2.7-0.4C278.8,154.8,279,154.6,279.2,154.3z"></path> <path class="st9" d="M209.2,161.9c0,0-0.2,0.3-0.7,0.4c-0.8,0.1-1.5-0.1-2.1-0.6c-0.8-0.7-1.4-1.7-1.9-2.7c-0.4-1.2-1.4-2.1-2.5-2.6 c-1.3-0.2-2.6-0.1-3.8,0.2c-1.1,0.3-2.2,0.2-3.3-0.1c-0.7-0.3-1.3-0.8-1.6-1.6c-0.2-0.5-0.1-0.8-0.1-0.8s0,0.3,0.3,0.7 c0.3,0.6,0.9,1.1,1.5,1.3c1,0.3,2.1,0.3,3.1,0c1.3-0.4,2.7-0.4,4-0.2c0.7,0.2,1.3,0.6,1.8,1.2c0.4,0.5,0.7,1.1,1,1.7 c0.4,1,0.9,1.9,1.7,2.6c0.5,0.5,1.2,0.7,1.9,0.7C208.7,162,208.9,162,209.2,161.9z"></path> <path class="st9" d="M207.7,156c0,0-0.2,0.1-0.6,0c-0.5-0.2-1-0.6-1.3-1.1c-0.3-0.7-0.8-1.3-1.3-1.7c-0.8-0.4-1.8-0.4-2.6-0.2 c-1,0.2-2,0.2-2.9,0c-0.8-0.2-1.5-0.5-2.2-1c-0.6-0.4-1.1-0.9-1.5-1.6c0.1-0.1,0.6,0.6,1.7,1.3c1.4,0.9,3.2,1.2,4.8,0.8 c1-0.3,2-0.2,2.9,0.3c0.6,0.5,1.1,1.2,1.4,2c0.2,0.4,0.6,0.8,1,1.1C207.4,156,207.7,156,207.7,156z"></path> <path class="st9" d="M254.7,161.2c0,0-0.6-0.1-1.8-0.4s-2.8-0.6-4.8-1c-1-0.2-2.1-0.4-3.3-0.5c-1.3-0.2-2.6-0.2-3.8-0.1 c-1.4,0.2-2.8,0.6-4,1.3c-1.3,0.7-2.6,1.5-4.1,2.2c-1.4,0.7-2.9,1.2-4.5,1.3c-1.5,0.1-2.9-0.1-4.3-0.5c-2.3-0.7-4.7-1.3-7.1-1.7 c-1.6-0.2-3.3-0.1-4.8,0.4c-0.5,0.2-1.1,0.5-1.6,0.8c0,0,0.1-0.1,0.3-0.3c0.4-0.3,0.8-0.5,1.2-0.7c1.6-0.6,3.2-0.8,4.9-0.6 c2.4,0.4,4.8,0.9,7.1,1.6c1.4,0.3,2.8,0.5,4.2,0.4c1.5-0.1,3-0.6,4.3-1.3c1.4-0.7,2.7-1.5,4.1-2.2c1.3-0.7,2.7-1.1,4.2-1.3 c1.3-0.1,2.6,0,3.9,0.2c1.2,0.2,2.3,0.4,3.4,0.6c2,0.4,3.7,0.9,4.8,1.2c0.6,0.2,1,0.3,1.3,0.4S254.7,161.1,254.7,161.2z"></path> <path class="st9" d="M255.7,166.2c0,0-0.6-0.2-1.7-0.7s-2.6-1.1-4.6-1.7c-1.1-0.3-2.2-0.6-3.3-0.7c-1.3-0.1-2.5,0.1-3.7,0.5 c-2.6,0.9-5,2.7-8,3.9c-1.5,0.6-3,0.8-4.6,0.8c-1.4,0-2.9-0.2-4.3-0.5c-2.4-0.5-4.7-0.9-7.1-1.1c-1.6-0.1-3.2,0.1-4.8,0.6 c-1.1,0.4-1.6,0.8-1.6,0.7s0.1-0.1,0.4-0.3c0.4-0.2,0.8-0.4,1.2-0.6c1.5-0.6,3.2-0.9,4.9-0.8c2.4,0.1,4.8,0.5,7.2,1 c2.7,0.4,5.7,0.8,8.6-0.4s5.3-3,8-3.9c1.3-0.4,2.6-0.6,3.9-0.4c1.1,0.2,2.2,0.4,3.3,0.8c1.6,0.5,3.1,1.1,4.6,1.9 c0.5,0.3,0.9,0.5,1.2,0.6C255.4,166,255.6,166.1,255.7,166.2z"></path> <path class="st3" d="M242.3,164.4c0,0-0.3,0.1-0.7,0.1c-0.7,0.1-1.3,0-2-0.1c-1-0.1-2-0.3-2.9-0.7c-1.1-0.4-2.2-1-3.2-1.7 c-1-0.7-1.9-1.5-2.7-2.5c-0.6-0.8-1.2-1.6-1.6-2.5c-0.3-0.6-0.6-1.2-0.8-1.9c-0.1-0.4-0.2-0.7-0.1-0.7s0.4,1,1.2,2.4 c0.5,0.8,1.1,1.6,1.7,2.3c0.8,0.9,1.7,1.7,2.6,2.3c1,0.7,2,1.2,3.1,1.7c0.9,0.3,1.8,0.6,2.8,0.8 C241.3,164.4,242.3,164.3,242.3,164.4z"></path> <path class="st3" d="M257.6,170.5c-0.2-0.3-0.3-0.6-0.4-1c-0.3-0.6-0.6-1.6-1-2.7c-0.8-2.3-1.8-5.5-2.9-9s-1.9-6.8-2.4-9.1 c-0.3-1.2-0.5-2.1-0.6-2.8c-0.1-0.3-0.1-0.7-0.1-1c0.2,0.3,0.3,0.7,0.4,1c0.2,0.8,0.5,1.7,0.8,2.8c0.6,2.3,1.5,5.5,2.6,9.1 s2,6.7,2.7,9c0.3,1.1,0.6,2,0.8,2.7C257.4,169.8,257.5,170.2,257.6,170.5z"></path> <path class="st4" d="M212.4,199.1c0,0,8.6-9.3,16.2-11.1s34.6-11.4,34.6-11.4l-1.7-5.4l0,0c1.7-0.2,3.4-1,4.5-2.3l1.8-1.7 c2.4-2.6,5.3-4,9.4-2.6l2.6,0.8l2.7,8c2.4,7-1.3,14.6-8.3,17c-0.8,0.3-1.6,0.5-2.5,0.6L212.4,199.1z"></path> <path class="st7" d="M274.5,177.8c-1.8-0.6-3.6-1-5.5-1.3c-1.9-0.1-3.8-0.1-5.6,0.2C267.1,175.3,271.1,175.8,274.5,177.8 L274.5,177.8z"></path> <path class="st3" d="M213.7,72.6C213,60,229.4,51.2,240.5,54.3c10.5,3,15,8.2,16.7,15.2s1.6,14.6-1.1,21.3c-1.4,3.3-3.8,6.6-7.3,7"></path> <path class="st4" d="M247.2,64.8c1.8,0.2,3.2,1.8,3.2,3.6l0,0l-2,48.2c-0.1,5.7-8.4,8.9-14.5,8.8l0,0c-6.1-0.1-6.4-3.1-6.4-8.6 c-0.1-9-0.1-12.4-0.1-12.4s-7.8-1.3-9.3-11.5c-0.8-5-0.6-13.3-0.1-20.1c0.4-6.1,4.4-13.5,10.5-12.9L247.2,64.8z"></path> <path class="st3" d="M220.5,79.5c0,0.7,0.6,1.3,1.3,1.3c0.7,0.1,1.3-0.5,1.3-1.1c0,0,0,0,0,0c0-0.7-0.5-1.3-1.3-1.3 C221.1,78.3,220.5,78.8,220.5,79.5C220.5,79.5,220.5,79.5,220.5,79.5z"></path> <path class="st3" d="M219.6,77.3c0.2,0.2,1.1-0.6,2.5-0.6s2.4,0.7,2.6,0.5s-0.1-0.4-0.5-0.7c-0.6-0.4-1.3-0.6-2.1-0.6 c-0.7,0-1.4,0.2-2,0.7C219.7,76.9,219.5,77.2,219.6,77.3z"></path> <path class="st3" d="M234.1,79.5c0,0.7,0.6,1.3,1.3,1.3c0.7,0.1,1.3-0.5,1.3-1.2c0,0,0,0,0,0c0-0.7-0.5-1.3-1.3-1.3 C234.8,78.3,234.2,78.8,234.1,79.5C234.1,79.5,234.1,79.5,234.1,79.5z"></path> <path class="st3" d="M233.4,77.5c0.2,0.2,1.1-0.6,2.5-0.6s2.4,0.7,2.6,0.5s-0.1-0.4-0.5-0.7c-0.6-0.4-1.3-0.6-2.1-0.6 c-0.7,0-1.4,0.2-2,0.7C233.4,77.1,233.3,77.4,233.4,77.5z"></path> <path class="st3" d="M228.3,87.9c-0.7-0.2-1.5-0.4-2.3-0.4c-0.4,0-0.7-0.1-0.8-0.3c0-0.4,0-0.7,0.2-1.1l1.1-2.7 c1.5-3.9,2.5-7.1,2.4-7.1c-1.2,2.2-2.1,4.5-2.9,6.9c-0.4,1-0.7,1.9-1,2.7c-0.2,0.4-0.3,0.9-0.2,1.4c0.1,0.3,0.3,0.4,0.6,0.5 c0.2,0.1,0.4,0.1,0.6,0.1C226.8,88,227.5,88,228.3,87.9z"></path> <path class="st7" d="M227.3,104.4c4.8,0.1,9.5-1.2,13.6-3.6c0,0-3.3,7-13.4,6L227.3,104.4z"></path> <path class="st7" d="M228.9,91.3c0.5-0.7,1.4-1,2.3-0.9c0.6,0.1,1.2,0.4,1.6,0.9c0.4,0.5,0.4,1.1,0.1,1.7c-0.5,0.5-1.2,0.7-1.8,0.5 c-0.7-0.2-1.3-0.6-1.8-1.1c-0.2-0.1-0.3-0.3-0.4-0.4C228.7,91.7,228.7,91.5,228.9,91.3"></path> <path class="st3" d="M232.4,88.9c-0.2,0-0.2,1.5-1.5,2.6s-2.9,0.9-2.9,1.1s0.4,0.3,1,0.3c0.9,0,1.8-0.3,2.4-0.9 c0.7-0.5,1.1-1.3,1.2-2.2C232.7,89.2,232.5,88.9,232.4,88.9z"></path> <path class="st3" d="M232.7,75.1c0.1,0.4,1.5,0.2,3.2,0.4s3,0.7,3.2,0.3c0.1-0.2-0.1-0.5-0.7-0.9c-1.4-0.9-3.2-1.1-4.8-0.5 C233,74.6,232.7,74.9,232.7,75.1z"></path> <path class="st3" d="M220.1,73.2c0.3,0.3,1.2,0,2.4,0s2.1,0.2,2.4-0.1c0.1-0.2-0.1-0.5-0.5-0.8c-0.6-0.4-1.2-0.5-1.9-0.5 c-0.7,0-1.3,0.2-1.9,0.6C220.2,72.7,220,73.1,220.1,73.2z"></path> <path class="st3" d="M233.4,56.7c-3.4,0.2-6.8,1.2-9.7,3c-3.3,1.7-5.9,4.7-7,8.3c-0.3,0.7-0.3,1.6,0.1,2.3c0.7,0.8,1.8,1.1,2.8,0.6 c0.9-0.5,1.7-1.2,2.3-2.1c0.6,2.3,3,3.7,5.3,3.1c1.5-0.4,2.7-1.6,3.1-3.2c0.2,2,1.9,3.6,3.9,3.5c2-0.2,3.7-1.5,4.3-3.4 c0.2,1.8,0.8,3.5,1.8,5c1,1.5,2.8,2.3,4.6,1.9c-0.4,1.5-0.3,3.1,0.1,4.5c0.5,1.4,3,32.5,4.5,32s1.1-32,1.4-33.5 c0.7-2.8,1.1-5.6,1.1-8.5c0.2-6.1-4-11.4-10-12.6c-2.9-0.7-5.9-0.9-8.8-0.8"></path> <path class="st3" d="M198.1,96.8c0,0-0.1-0.2-0.4-0.5c-0.4-0.4-1-0.7-1.5-0.8c-0.9-0.2-1.8,0-2.6,0.6c-0.9,0.8-1.4,2-1.2,3.2 c0.1,0.7,0.4,1.4,0.8,1.9c0.5,0.6,1.1,1.1,1.8,1.4c1.6,0.7,3.3,0.7,4.9,0c1.7-0.8,3.2-2,4.3-3.5c1.2-1.6,2.2-3.5,2.8-5.4 c1.3-4,1.7-8.1,2.2-11.7c0.4-3.3,1.3-6.4,2.6-9.4c0.9-2,2.2-3.9,3.9-5.4c0.5-0.4,1-0.8,1.5-1.1c0.2-0.1,0.4-0.2,0.6-0.3 c0,0-0.7,0.5-1.9,1.5c-1.6,1.5-2.8,3.3-3.7,5.4c-1.2,3-2,6.2-2.4,9.4c-0.5,3.6-0.9,7.7-2.2,11.8c-0.6,2-1.6,3.9-2.9,5.6 c-1.2,1.6-2.7,2.9-4.5,3.7c-1.7,0.7-3.6,0.7-5.3,0c-0.8-0.3-1.4-0.9-1.9-1.5c-0.4-0.6-0.7-1.3-0.8-2.1c-0.2-1.3,0.3-2.7,1.4-3.5 c0.8-0.6,1.8-0.8,2.8-0.5c0.6,0.1,1.2,0.4,1.6,0.9C197.9,96.5,198,96.6,198.1,96.8z"></path> <path class="st3" d="M251.8,113.4c0-0.1,0.6-0.3,1.6-1c1.4-1,2.5-2.2,3.4-3.6c1.3-2.1,2.2-4.5,2.6-6.9c0.4-3,0.2-6.1-0.4-9.1 c-0.6-3.2-1.5-6.2-2.3-8.9s-1.5-5.2-1.9-7.3c-0.3-1.7-0.5-3.4-0.6-5.1c0-0.6,0-1.1,0-1.4c0-0.2,0-0.3,0.1-0.5c0.1,0,0,0.7,0.1,1.9 c0.1,1.7,0.4,3.4,0.7,5c0.4,2.1,1.1,4.6,2,7.3c0.9,3,1.7,6,2.4,9c0.7,3,0.8,6.2,0.4,9.3c-0.4,2.5-1.3,4.9-2.7,7.1 c-1,1.4-2.2,2.7-3.6,3.6c-0.4,0.3-0.8,0.5-1.2,0.7C252.1,113.4,252,113.4,251.8,113.4z"></path> <path class="st3" d="M253.6,106.9c-0.1,0.1-0.2,0.1-0.4,0.2c-0.4,0.1-0.7,0.2-1.1,0.3c-1.4,0.1-2.8-0.2-4.1-0.8 c-1.8-1.1-3.2-2.7-3.9-4.7c-0.8-2.4-1.1-5-0.8-7.5c0.2-2.7,0.7-5.2,0.9-7.5s0.4-4.4,0.4-6.1s0-3.2,0-4.1c0-0.5,0-1,0-1.5 c0.1,0.5,0.2,1,0.2,1.5c0.1,1,0.2,2.4,0.2,4.2c0,2.1-0.1,4.1-0.3,6.1c-0.2,2.3-0.7,4.8-0.9,7.5c-0.3,2.5-0.1,4.9,0.7,7.3 c0.6,1.9,1.9,3.5,3.6,4.6c1.2,0.7,2.5,1,3.9,1C253.1,107.1,253.6,106.9,253.6,106.9z"></path> <path class="st8" d="M188.2,116.1c0-0.3,0-0.7,0.2-1c0.3-0.9,0.9-1.7,1.7-2.2c1.2-0.9,2.6-1.4,4.1-1.4c1.7-0.2,3.7,0.1,5.8,0 c2.3-0.2,4.5-1,6.5-2.2c2.2-1.4,4.2-3.3,5.6-5.6c1.6-2.5,2.7-5.2,3.3-8.1c0.6-3.1,0.9-6.3,0.8-9.4c0-3.3-0.4-6.4-0.6-9.5 c-0.3-3-0.1-6,0.6-8.9c1.3-5.1,5.3-9,10.4-10.1c1.9-0.4,3.9-0.3,5.8,0.2c1.4,0.4,2.8,1,4,1.8c0.8,0.5,1.5,1.1,2.1,1.8 c0.2,0.2,0.4,0.4,0.5,0.5s0.2,0.2,0.1,0.2c-0.9-0.9-1.8-1.7-2.9-2.3c-1.2-0.8-2.6-1.3-4-1.7c-1.9-0.4-3.8-0.5-5.7-0.1 c-2.3,0.5-4.4,1.6-6.1,3.1c-2,1.8-3.4,4.1-4,6.7c-0.6,2.9-0.8,5.8-0.5,8.8c0.2,3.1,0.6,6.3,0.7,9.5c0.1,3.2-0.2,6.4-0.8,9.6 c-0.6,2.9-1.8,5.7-3.4,8.3c-1.5,2.3-3.5,4.2-5.8,5.7c-2,1.3-4.3,2-6.7,2.2c-2.2,0.1-4.1-0.2-5.8,0c-1.4,0-2.8,0.5-4,1.3 c-0.8,0.5-1.3,1.2-1.7,2.1C188.3,115.7,188.3,116.1,188.2,116.1z"></path> <path class="st8" d="M238.4,54.6c0,0,0.5,0.2,1,0.8c0.7,0.8,1.1,1.8,1.2,2.9c0.1,1.1-0.2,2.1-0.7,3.1c-0.4,0.7-0.8,1-0.9,1 s0.2-0.4,0.6-1.1c0.9-1.8,0.7-3.9-0.5-5.5C238.7,54.9,238.3,54.6,238.4,54.6z"></path> <path class="st8" d="M258.3,80.5c-0.1-0.4-0.2-0.8-0.3-1.2c-0.1-0.8-0.4-1.9-0.7-3.3s-0.7-3.1-1.2-4.9c-0.3-0.9-0.5-1.9-0.9-2.8 c-0.3-1-0.8-1.9-1.4-2.8c-1.2-1.7-2.8-2.9-4.7-3.7c-1.5-0.6-3.2-0.8-4.9-0.5c-1.1,0.2-2.2,0.6-3.1,1.2c-0.3,0.3-0.7,0.5-1,0.7 c0,0,0.1-0.1,0.2-0.3c0.2-0.2,0.4-0.4,0.7-0.6c0.9-0.7,2-1.2,3.1-1.4c1.7-0.4,3.5-0.2,5.1,0.4c2,0.8,3.7,2.1,4.9,3.8 c0.7,0.9,1.2,1.9,1.5,2.9c0.3,1,0.6,2,0.9,2.9c0.5,1.9,0.8,3.6,1.1,5s0.4,2.6,0.5,3.4C258.3,79.7,258.4,80.1,258.3,80.5z"></path> <path class="st8" d="M239.4,62.6c-1.1-0.1-2.2-0.4-3.2-0.8c-1.1-0.4-2.3-0.6-3.4-0.8c-1.4-0.2-2.8,0-4.2,0.5 c-1.3,0.5-2.5,1.3-3.4,2.4c-0.7,0.9-1.3,1.9-1.6,3c-0.3,1-0.4,2.1-0.4,3.2c-0.1-0.3-0.2-0.6-0.2-0.9c0-0.8,0-1.6,0.2-2.4 c0.3-1.2,0.8-2.3,1.6-3.3c1-1.2,2.2-2.1,3.6-2.6c1.4-0.5,2.9-0.7,4.4-0.5c1.2,0.2,2.3,0.6,3.5,1C238.2,62.2,239.4,62.6,239.4,62.6z"></path> </svg> 